<svg width="20" height="25" viewBox="0 0 20 25" fill="none" xmlns="http://www.w3.org/2000/svg">
<path d="M8.32644 0.856201C7.3905 0.857682 6.54535 1.38147 6.12082 2.19401C6.02271 2.38179 5.83817 2.51792 5.62631 2.51792H5.503C5.22685 2.51792 5.003 2.74178 5.003 3.01792V5.34136C5.003 5.61751 5.22685 5.84136 5.503 5.84136H11.1499C11.426 5.84136 11.6499 5.61751 11.6499 5.34136V3.01792C11.6499 2.74178 11.426 2.51792 11.1499 2.51792H11.0281C10.8162 2.51792 10.6317 2.38175 10.5335 2.19393C10.1089 1.38088 9.26288 0.856875 8.32644 0.856201ZM1.34869 4.17964C1.07255 4.17964 0.848694 4.4035 0.848694 4.67964V20.2969C0.848694 20.573 1.07255 20.7969 1.34869 20.7969H5.33386C5.61 20.7969 5.83386 21.0207 5.83386 21.2969V23.6203C5.83386 23.8964 6.05771 24.1203 6.33386 24.1203H18.6276C18.9038 24.1203 19.1276 23.8964 19.1276 23.6203V9.66481C19.1276 9.38867 18.9038 9.16481 18.6276 9.16481H16.3042C16.028 9.16481 15.8042 8.94095 15.8042 8.66481V4.67964C15.8042 4.4035 15.5803 4.17964 15.3042 4.17964H13.8116C13.5355 4.17964 13.3116 4.4035 13.3116 4.67964V7.00309C13.3116 7.27923 13.0877 7.50309 12.8116 7.50309H3.84128C3.56513 7.50309 3.34128 7.27923 3.34128 7.00309V4.67964C3.34128 4.4035 3.11742 4.17964 2.84128 4.17964H1.34869ZM7.49558 11.3265C7.49558 11.0504 7.71944 10.8265 7.99558 10.8265H16.9659C17.242 10.8265 17.4659 11.0504 17.4659 11.3265V21.9586C17.4659 22.2347 17.242 22.4586 16.9659 22.4586H7.99558C7.71944 22.4586 7.49558 22.2347 7.49558 21.9586V11.3265ZM9.6573 12.4882C9.38116 12.4882 9.1573 12.7121 9.1573 12.9882V13.65C9.1573 13.9261 9.38116 14.15 9.6573 14.15H15.3042C15.5803 14.15 15.8042 13.9261 15.8042 13.65V12.9882C15.8042 12.7121 15.5803 12.4882 15.3042 12.4882H9.6573ZM9.6573 15.8117C9.38116 15.8117 9.1573 16.0355 9.1573 16.3117V16.9734C9.1573 17.2496 9.38116 17.4734 9.6573 17.4734H15.3042C15.5803 17.4734 15.8042 17.2496 15.8042 16.9734V16.3117C15.8042 16.0355 15.5803 15.8117 15.3042 15.8117H9.6573ZM9.6573 19.1351C9.38116 19.1351 9.1573 19.359 9.1573 19.6351V20.2969C9.1573 20.573 9.38116 20.7969 9.6573 20.7969H15.3042C15.5803 20.7969 15.8042 20.573 15.8042 20.2969V19.6351C15.8042 19.359 15.5803 19.1351 15.3042 19.1351H9.6573Z" fill="#BB8CF2"/>
</svg>
