<svg width="140" height="74" viewBox="0 0 140 74" fill="none" xmlns="http://www.w3.org/2000/svg">
<rect width="140" height="74" rx="8" fill="#9957E5"/>
<g clip-path="url(#clip0_6033_40056)">
<path d="M33.5 41.172L38.864 35.808L40.278 37.222L32.5 45L24.722 37.222L26.136 35.808L31.5 41.172V29H33.5V41.172Z" fill="white"/>
</g>
<path d="M58.8862 44H54.3062V30.4H58.8862C60.0595 30.4 61.0262 30.5267 61.7862 30.78C62.5462 31.02 63.1328 31.4267 63.5462 32C63.9728 32.56 64.2662 33.2267 64.4262 34C64.5862 34.76 64.6662 35.7533 64.6662 36.98C64.6662 38.2067 64.5928 39.2267 64.4462 40.04C64.2995 40.84 64.0195 41.56 63.6062 42.2C63.2062 42.8267 62.6195 43.2867 61.8462 43.58C61.0728 43.86 60.0862 44 58.8862 44ZM61.7862 38.6C61.8128 38.1733 61.8262 37.5867 61.8262 36.84C61.8262 36.08 61.7995 35.4733 61.7462 35.02C61.6928 34.5667 61.5662 34.1533 61.3662 33.78C61.1662 33.4067 60.8662 33.1533 60.4662 33.02C60.0795 32.8733 59.5528 32.8 58.8862 32.8H57.0662V41.6H58.8862C59.8862 41.6 60.6128 41.3467 61.0662 40.84C61.4528 40.4267 61.6928 39.68 61.7862 38.6ZM69.0201 40.14C69.0334 40.7533 69.1934 41.2 69.5001 41.48C69.8201 41.7467 70.2734 41.88 70.8601 41.88C72.1001 41.88 73.2067 41.84 74.1801 41.76L74.7401 41.7L74.7801 43.68C73.2467 44.0533 71.8601 44.24 70.6201 44.24C69.1134 44.24 68.0201 43.84 67.3401 43.04C66.6601 42.24 66.3201 40.94 66.3201 39.14C66.3201 35.5533 67.7934 33.76 70.7401 33.76C73.6467 33.76 75.1001 35.2667 75.1001 38.28L74.9001 40.14H69.0201ZM72.4601 38.1C72.4601 37.3 72.3334 36.7467 72.0801 36.44C71.8267 36.12 71.3801 35.96 70.7401 35.96C70.1134 35.96 69.6667 36.1267 69.4001 36.46C69.1467 36.78 69.0134 37.3267 69.0001 38.1H72.4601ZM77.0154 48.2V34H79.6754V34.54C80.5421 34.02 81.3021 33.76 81.9554 33.76C83.3021 33.76 84.2954 34.1667 84.9354 34.98C85.5754 35.78 85.8954 37.1467 85.8954 39.08C85.8954 41.0133 85.5421 42.36 84.8354 43.12C84.1287 43.8667 82.9687 44.24 81.3554 44.24C80.9154 44.24 80.4421 44.2 79.9354 44.12L79.6954 44.08V48.2H77.0154ZM81.4354 36.16C80.9421 36.16 80.4421 36.26 79.9354 36.46L79.6954 36.56V41.8C80.2954 41.88 80.7821 41.92 81.1554 41.92C81.9287 41.92 82.4554 41.6933 82.7354 41.24C83.0287 40.7867 83.1754 40.0133 83.1754 38.92C83.1754 37.08 82.5954 36.16 81.4354 36.16ZM88.4343 35.14C89.141 34.22 90.321 33.76 91.9743 33.76C93.6276 33.76 94.8076 34.22 95.5143 35.14C96.221 36.0467 96.5743 37.3267 96.5743 38.98C96.5743 42.4867 95.041 44.24 91.9743 44.24C88.9076 44.24 87.3743 42.4867 87.3743 38.98C87.3743 37.3267 87.7276 36.0467 88.4343 35.14ZM90.4943 41.24C90.7743 41.72 91.2676 41.96 91.9743 41.96C92.681 41.96 93.1676 41.72 93.4343 41.24C93.7143 40.76 93.8543 40.0067 93.8543 38.98C93.8543 37.9533 93.7143 37.2067 93.4343 36.74C93.1676 36.2733 92.681 36.04 91.9743 36.04C91.2676 36.04 90.7743 36.2733 90.4943 36.74C90.2276 37.2067 90.0943 37.9533 90.0943 38.98C90.0943 40.0067 90.2276 40.76 90.4943 41.24ZM105.719 36.5C104.065 36.2867 102.905 36.18 102.239 36.18C101.585 36.18 101.159 36.24 100.959 36.36C100.772 36.48 100.679 36.6733 100.679 36.94C100.679 37.1933 100.805 37.3733 101.059 37.48C101.325 37.5733 101.992 37.72 103.059 37.92C104.139 38.1067 104.905 38.42 105.359 38.86C105.812 39.3 106.039 40.0133 106.039 41C106.039 43.16 104.699 44.24 102.019 44.24C101.139 44.24 100.072 44.12 98.8188 43.88L98.1788 43.76L98.2588 41.52C99.9122 41.7333 101.059 41.84 101.699 41.84C102.352 41.84 102.792 41.78 103.019 41.66C103.259 41.5267 103.379 41.3333 103.379 41.08C103.379 40.8267 103.252 40.64 102.999 40.52C102.759 40.4 102.119 40.2533 101.079 40.08C100.052 39.9067 99.2855 39.6133 98.7788 39.2C98.2722 38.7867 98.0188 38.0533 98.0188 37C98.0188 35.9333 98.3788 35.1333 99.0988 34.6C99.8188 34.0533 100.745 33.78 101.879 33.78C102.665 33.78 103.739 33.9067 105.099 34.16L105.759 34.28L105.719 36.5ZM107.972 44V34H110.652V44H107.972ZM107.972 32.72V30H110.652V32.72H107.972ZM118.669 36.28H116.209V40.38C116.209 40.78 116.215 41.0667 116.229 41.24C116.255 41.4 116.329 41.54 116.449 41.66C116.582 41.78 116.782 41.84 117.049 41.84L118.569 41.8L118.689 43.94C117.795 44.14 117.115 44.24 116.649 44.24C115.449 44.24 114.629 43.9733 114.189 43.44C113.749 42.8933 113.529 41.8933 113.529 40.44V36.28H112.349V34H113.529V31.22H116.209V34H118.669V36.28Z" fill="white"/>
<defs>
<clipPath id="clip0_6033_40056">
<rect width="24" height="24" fill="white" transform="translate(20.5 25)"/>
</clipPath>
</defs>
</svg>
