<svg width="120" height="24" viewBox="0 0 120 24" fill="none" xmlns="http://www.w3.org/2000/svg">
<g clip-path="url(#clip0_5910_68603)">
<path d="M32.4371 0.607666H43.514L35.4035 23.3873H26.4941L27.3438 20.9927L31.1701 10.2221L20.1186 21.3884H17.5084L14.2672 11.1368L9.90666 23.3925H0.997281L0 22.447L0.279849 22.2979C0.824283 21.9793 1.34328 21.558 1.83683 21.0287L1.84701 20.9927L8.28354 2.88923L7.70349 0.612805H18.0172L21.1413 11.3115L32.4371 0.612805V0.607666Z" fill="#EEEEEE"/>
<path d="M51.1062 18.5284H76.871L73.5468 23.3925H40.4729L39.4767 22.4474L39.7562 22.2984C39.7562 22.2984 40.417 21.9492 41.3217 20.9938L44.1376 13.053L47.7363 2.86766L47.1721 0.617939H57.5207C58.7609 0.617939 60.0723 0.617939 61.4192 0.617939H70.1464L82.9907 0.607666L75.7985 7.65473L75.7426 7.552C74.9903 6.20114 73.8975 5.45637 72.7387 5.45637H55.757L54.903 7.86532L54.2931 9.58085C54.8268 9.58085 55.1165 9.58085 56.5702 9.58085C58.0137 9.58599 59.3251 9.58085 60.6365 9.58085C65.3991 9.60654 69.2874 9.58085 69.628 9.58085L66.2987 14.4296H52.5649L51.1062 18.5284Z" fill="#EEEEEE"/>
<path d="M119.867 1.30621C119.729 0.920983 119.499 0.674438 119.239 0.607666H87.5381L86.3477 2.34375L84.1969 5.47178H109.721C109.767 5.48719 109.803 5.52314 109.828 5.58992C109.859 5.6721 109.854 5.76969 109.828 5.85187L109.271 7.41845L108.505 9.57058H96.0904L93.071 14.4142L93.0455 14.4552H106.763L105.312 18.5284H88.1767C87.0834 18.4565 86.0514 17.7322 85.3413 16.4481L85.2851 16.3454L83.0474 18.5284L78.056 23.3925H107.463C107.539 23.3925 107.616 23.3822 107.693 23.3822C110.738 23.2589 113.522 20.6959 115.014 16.6125L115.8 14.4552L114.559 12.6524L117.17 10.6133L119.877 2.76493C120.041 2.30266 120.041 1.76334 119.877 1.30621H119.867Z" fill="#BA00FB"/>
</g>
<defs>
<clipPath id="clip0_5910_68603">
<rect width="120" height="22.7848" fill="white" transform="translate(0 0.607666)"/>
</clipPath>
</defs>
</svg>
