<svg width="41" height="40" viewBox="0 0 41 40" fill="none" xmlns="http://www.w3.org/2000/svg">
<circle cx="20.4609" cy="20" r="20" fill="#8247E5"/>
<g clip-path="url(#clip0_5910_49875)">
<path d="M27.0358 15.6985C26.5618 15.4358 25.9525 15.4358 25.4108 15.6985L21.6191 17.8657L19.0462 19.2448L15.3223 21.4119C14.8483 21.6746 14.2389 21.6746 13.6973 21.4119L10.7858 19.7045C10.3118 19.4418 9.97331 18.9164 9.97331 18.3254V15.0418C9.97331 14.5164 10.2441 13.991 10.7858 13.6627L13.6973 12.0209C14.1712 11.7582 14.7806 11.7582 15.3223 12.0209L18.2337 13.7284C18.7077 13.991 19.0462 14.5164 19.0462 15.1075V17.2746L21.6191 15.8298V13.597C21.6191 13.0716 21.3483 12.5463 20.8066 12.2179L15.39 9.13134C14.916 8.86865 14.3066 8.86865 13.765 9.13134L8.21289 12.2836C7.67122 12.5463 7.40039 13.0716 7.40039 13.597V19.7701C7.40039 20.2955 7.67122 20.8209 8.21289 21.1493L13.6973 24.2358C14.1712 24.4985 14.7806 24.4985 15.3223 24.2358L19.0462 22.1343L21.6191 20.6895L25.3431 18.5881C25.8171 18.3254 26.4264 18.3254 26.9681 18.5881L29.8796 20.2298C30.3535 20.4925 30.6921 21.0179 30.6921 21.609V24.8925C30.6921 25.4179 30.4212 25.9433 29.8796 26.2716L27.0358 27.9134C26.5618 28.1761 25.9525 28.1761 25.4108 27.9134L22.4993 26.2716C22.0254 26.009 21.6868 25.4836 21.6868 24.8925V22.791L19.1139 24.2358V26.403C19.1139 26.9284 19.3848 27.4537 19.9264 27.7821L25.4108 30.8687C25.8848 31.1313 26.4941 31.1313 27.0358 30.8687L32.5202 27.7821C32.9941 27.5194 33.3327 26.994 33.3327 26.403V20.1642C33.3327 19.6388 33.0618 19.1134 32.5202 18.7851L27.0358 15.6985Z" fill="white"/>
</g>
<defs>
<clipPath id="clip0_5910_49875">
<rect width="26" height="22" fill="white" transform="translate(7.40039 9)"/>
</clipPath>
</defs>
</svg>
