<svg width="140" height="74" viewBox="0 0 140 74" fill="none" xmlns="http://www.w3.org/2000/svg">
<rect width="140" height="74" rx="8" fill="#9957E5"/>
<g clip-path="url(#clip0_6033_40062)">
<path d="M48.004 34.414L39.397 43.021L37.983 41.607L46.589 33H39.004V31H50.004V42H48.004V34.414V34.414Z" fill="#F5EFFD"/>
</g>
<path d="M70.1073 32.56C68.6539 32.56 67.9273 33.04 67.9273 34C67.9273 34.4267 68.1073 34.7533 68.4673 34.98C68.8273 35.2067 69.6673 35.5333 70.9873 35.96C72.3206 36.3867 73.2539 36.8733 73.7873 37.42C74.3206 37.9533 74.5873 38.78 74.5873 39.9C74.5873 41.3267 74.1539 42.4067 73.2873 43.14C72.4206 43.8733 71.2873 44.24 69.8873 44.24C68.8473 44.24 67.5739 44.08 66.0673 43.76L65.3473 43.62L65.6273 41.48C67.4139 41.72 68.7806 41.84 69.7273 41.84C71.1406 41.84 71.8473 41.2533 71.8473 40.08C71.8473 39.6533 71.6806 39.32 71.3473 39.08C71.0273 38.84 70.3806 38.58 69.4073 38.3C67.8606 37.86 66.7673 37.34 66.1273 36.74C65.5006 36.1267 65.1873 35.28 65.1873 34.2C65.1873 32.84 65.6006 31.8267 66.4273 31.16C67.2539 30.4933 68.3873 30.16 69.8273 30.16C70.8139 30.16 72.0673 30.2933 73.5873 30.56L74.3073 30.7L74.0873 32.88C72.2073 32.6667 70.8806 32.56 70.1073 32.56ZM78.7662 40.14C78.7795 40.7533 78.9395 41.2 79.2462 41.48C79.5662 41.7467 80.0195 41.88 80.6062 41.88C81.8462 41.88 82.9528 41.84 83.9262 41.76L84.4862 41.7L84.5262 43.68C82.9928 44.0533 81.6062 44.24 80.3662 44.24C78.8595 44.24 77.7662 43.84 77.0862 43.04C76.4062 42.24 76.0662 40.94 76.0662 39.14C76.0662 35.5533 77.5395 33.76 80.4862 33.76C83.3928 33.76 84.8462 35.2667 84.8462 38.28L84.6462 40.14H78.7662ZM82.2062 38.1C82.2062 37.3 82.0795 36.7467 81.8262 36.44C81.5728 36.12 81.1262 35.96 80.4862 35.96C79.8595 35.96 79.4128 36.1267 79.1462 36.46C78.8928 36.78 78.7595 37.3267 78.7462 38.1H82.2062ZM89.4415 44H86.7615V34H89.4215V34.56C90.3282 34.0267 91.1615 33.76 91.9215 33.76C93.2548 33.76 94.1748 34.1533 94.6815 34.94C95.1882 35.7267 95.4415 36.94 95.4415 38.58V44H92.7615V38.66C92.7615 37.8067 92.6615 37.18 92.4615 36.78C92.2615 36.3667 91.8615 36.16 91.2615 36.16C90.7148 36.16 90.1882 36.2533 89.6815 36.44L89.4415 36.52V44ZM106.316 30V44H103.656V43.58C102.723 44.02 101.916 44.24 101.236 44.24C99.7828 44.24 98.7695 43.82 98.1962 42.98C97.6228 42.14 97.3362 40.8133 97.3362 39C97.3362 37.1733 97.6762 35.8467 98.3562 35.02C99.0495 34.18 100.09 33.76 101.476 33.76C101.903 33.76 102.496 33.8267 103.256 33.96L103.636 34.04V30H106.316ZM103.356 41.6L103.636 41.54V36.28C102.903 36.1467 102.25 36.08 101.676 36.08C100.596 36.08 100.056 37.04 100.056 38.96C100.056 40 100.176 40.74 100.416 41.18C100.656 41.62 101.05 41.84 101.596 41.84C102.156 41.84 102.743 41.76 103.356 41.6Z" fill="#F5EFFD"/>
<defs>
<clipPath id="clip0_6033_40062">
<rect width="24" height="24" fill="white" transform="translate(32 25)"/>
</clipPath>
</defs>
</svg>
