<svg width="341" height="70" viewBox="0 0 341 70" fill="none" xmlns="http://www.w3.org/2000/svg">
<rect width="341" height="70" rx="10" fill="white"/>
<path fill-rule="evenodd" clip-rule="evenodd" d="M91.708 35.1944C91.708 34.5881 91.6536 34.0052 91.5525 33.4456H83.5V36.7529H88.1015C87.9032 37.8216 87.3009 38.7271 86.3953 39.3334V41.4787H89.1585C90.7753 39.9902 91.708 37.7983 91.708 35.1944Z" fill="#4285F4"/>
<path fill-rule="evenodd" clip-rule="evenodd" d="M83.5 43.55C85.8085 43.55 87.7439 42.7844 89.1585 41.4786L86.3953 39.3333C85.6297 39.8463 84.6503 40.1494 83.5 40.1494C81.2731 40.1494 79.3882 38.6454 78.7159 36.6245H75.8594V38.8397C77.2662 41.634 80.1577 43.55 83.5 43.55Z" fill="#34A853"/>
<path fill-rule="evenodd" clip-rule="evenodd" d="M78.7158 36.6246C78.5448 36.1116 78.4477 35.5637 78.4477 35.0001C78.4477 34.4366 78.5448 33.8886 78.7158 33.3756V31.1604H75.8594C75.2803 32.3147 74.95 33.6205 74.95 35.0001C74.95 36.3798 75.2803 37.6856 75.8594 38.8399L78.7158 36.6246Z" fill="#FBBC05"/>
<path fill-rule="evenodd" clip-rule="evenodd" d="M83.5 29.8508C84.7553 29.8508 85.8823 30.2821 86.7684 31.1294L89.2207 28.6771C87.74 27.2974 85.8046 26.4502 83.5 26.4502C80.1577 26.4502 77.2662 28.3662 75.8594 31.1605L78.7159 33.3757C79.3882 31.3548 81.2731 29.8508 83.5 29.8508Z" fill="#EA4335"/>
<path d="M116.16 30.56C114.707 30.56 113.98 31.04 113.98 32C113.98 32.4267 114.16 32.7533 114.52 32.98C114.88 33.2067 115.72 33.5333 117.04 33.96C118.373 34.3867 119.307 34.8733 119.84 35.42C120.373 35.9533 120.64 36.78 120.64 37.9C120.64 39.3267 120.207 40.4067 119.34 41.14C118.473 41.8733 117.34 42.24 115.94 42.24C114.9 42.24 113.627 42.08 112.12 41.76L111.4 41.62L111.68 39.48C113.467 39.72 114.833 39.84 115.78 39.84C117.193 39.84 117.9 39.2533 117.9 38.08C117.9 37.6533 117.733 37.32 117.4 37.08C117.08 36.84 116.433 36.58 115.46 36.3C113.913 35.86 112.82 35.34 112.18 34.74C111.553 34.1267 111.24 33.28 111.24 32.2C111.24 30.84 111.653 29.8267 112.48 29.16C113.307 28.4933 114.44 28.16 115.88 28.16C116.867 28.16 118.12 28.2933 119.64 28.56L120.36 28.7L120.14 30.88C118.26 30.6667 116.933 30.56 116.16 30.56ZM122.619 42V32H125.299V42H122.619ZM122.619 30.72V28H125.299V30.72H122.619ZM136.835 43.24C136.835 44.3867 136.395 45.2333 135.515 45.78C134.635 46.3267 133.442 46.6 131.935 46.6C130.442 46.6 129.288 46.4 128.475 46C127.675 45.6 127.275 44.8733 127.275 43.82C127.275 42.98 127.755 42.1867 128.715 41.44C128.222 41.1067 127.975 40.6 127.975 39.92C127.975 39.6533 128.175 39.2133 128.575 38.6L128.755 38.32C127.848 37.6667 127.395 36.7067 127.395 35.44C127.395 34.16 127.775 33.2333 128.535 32.66C129.308 32.0867 130.328 31.8 131.595 31.8C132.168 31.8 132.735 31.8667 133.295 32L133.615 32.06L136.835 31.96V34.1L135.335 33.98C135.628 34.4333 135.775 34.8867 135.775 35.34C135.775 36.6733 135.435 37.5933 134.755 38.1C134.075 38.6067 133.008 38.86 131.555 38.86C131.248 38.86 130.975 38.8333 130.735 38.78C130.602 39.1267 130.535 39.4133 130.535 39.64C130.535 39.8533 130.648 40 130.875 40.08C131.102 40.16 131.635 40.2067 132.475 40.22C134.155 40.2333 135.302 40.46 135.915 40.9C136.528 41.3267 136.835 42.1067 136.835 43.24ZM129.915 43.54C129.915 44.1133 130.615 44.4 132.015 44.4C133.428 44.4 134.135 44.0667 134.135 43.4C134.135 43.04 134.015 42.8067 133.775 42.7C133.535 42.6067 133.028 42.5533 132.255 42.54L130.455 42.4C130.095 42.76 129.915 43.14 129.915 43.54ZM130.075 35.36C130.075 36.3333 130.582 36.82 131.595 36.82C132.622 36.82 133.135 36.3333 133.135 35.36C133.135 34.3733 132.622 33.88 131.595 33.88C130.582 33.88 130.075 34.3733 130.075 35.36ZM141.139 42H138.459V32H141.119V32.56C142.025 32.0267 142.859 31.76 143.619 31.76C144.952 31.76 145.872 32.1533 146.379 32.94C146.885 33.7267 147.139 34.94 147.139 36.58V42H144.459V36.66C144.459 35.8067 144.359 35.18 144.159 34.78C143.959 34.3667 143.559 34.16 142.959 34.16C142.412 34.16 141.885 34.2533 141.379 34.44L141.139 34.52V42ZM153.908 42V32H156.588V42H153.908ZM153.908 30.72V28H156.588V30.72H153.908ZM161.744 42H159.064V32H161.724V32.56C162.631 32.0267 163.464 31.76 164.224 31.76C165.558 31.76 166.478 32.1533 166.984 32.94C167.491 33.7267 167.744 34.94 167.744 36.58V42H165.064V36.66C165.064 35.8067 164.964 35.18 164.764 34.78C164.564 34.3667 164.164 34.16 163.564 34.16C163.018 34.16 162.491 34.2533 161.984 34.44L161.744 34.52V42ZM173.753 32H176.393L177.613 39.72H178.093L179.613 32.2H182.373L183.893 39.72H184.373L185.593 32H188.233L186.333 42H182.133L180.993 35.88L179.853 42H175.653L173.753 32ZM189.963 42V32H192.643V42H189.963ZM189.963 30.72V28H192.643V30.72H189.963ZM200.659 34.28H198.199V38.38C198.199 38.78 198.206 39.0667 198.219 39.24C198.246 39.4 198.319 39.54 198.439 39.66C198.572 39.78 198.772 39.84 199.039 39.84L200.559 39.8L200.679 41.94C199.786 42.14 199.106 42.24 198.639 42.24C197.439 42.24 196.619 41.9733 196.179 41.44C195.739 40.8933 195.519 39.8933 195.519 38.44V34.28H194.339V32H195.519V29.22H198.199V32H200.659V34.28ZM205.084 42H202.404V28H205.084V32.48C206.004 32 206.831 31.76 207.564 31.76C208.897 31.76 209.817 32.1533 210.324 32.94C210.831 33.7267 211.084 34.94 211.084 36.58V42H208.404V36.64C208.404 35.8 208.304 35.18 208.104 34.78C207.904 34.3667 207.504 34.16 206.904 34.16C206.384 34.16 205.864 34.24 205.344 34.4L205.084 34.48V42ZM223.753 37.12V34.72H227.713V41.78C225.807 42.0867 224.26 42.24 223.073 42.24C220.953 42.24 219.493 41.6733 218.693 40.54C217.907 39.4067 217.513 37.6067 217.513 35.14C217.513 32.6733 217.927 30.8933 218.753 29.8C219.58 28.7067 220.987 28.16 222.973 28.16C224.213 28.16 225.553 28.3 226.993 28.58L227.713 28.72L227.633 30.86C226.033 30.6867 224.72 30.6 223.693 30.6C222.68 30.6 221.967 30.72 221.553 30.96C221.14 31.2 220.833 31.6467 220.633 32.3C220.447 32.94 220.353 34.0467 220.353 35.62C220.353 37.18 220.547 38.2733 220.933 38.9C221.32 39.5267 222.12 39.84 223.333 39.84L224.993 39.76V37.12H223.753ZM230.62 33.14C231.327 32.22 232.507 31.76 234.16 31.76C235.813 31.76 236.993 32.22 237.7 33.14C238.407 34.0467 238.76 35.3267 238.76 36.98C238.76 40.4867 237.227 42.24 234.16 42.24C231.093 42.24 229.56 40.4867 229.56 36.98C229.56 35.3267 229.913 34.0467 230.62 33.14ZM232.68 39.24C232.96 39.72 233.453 39.96 234.16 39.96C234.867 39.96 235.353 39.72 235.62 39.24C235.9 38.76 236.04 38.0067 236.04 36.98C236.04 35.9533 235.9 35.2067 235.62 34.74C235.353 34.2733 234.867 34.04 234.16 34.04C233.453 34.04 232.96 34.2733 232.68 34.74C232.413 35.2067 232.28 35.9533 232.28 36.98C232.28 38.0067 232.413 38.76 232.68 39.24ZM241.264 33.14C241.971 32.22 243.151 31.76 244.804 31.76C246.458 31.76 247.638 32.22 248.344 33.14C249.051 34.0467 249.404 35.3267 249.404 36.98C249.404 40.4867 247.871 42.24 244.804 42.24C241.738 42.24 240.204 40.4867 240.204 36.98C240.204 35.3267 240.558 34.0467 241.264 33.14ZM243.324 39.24C243.604 39.72 244.098 39.96 244.804 39.96C245.511 39.96 245.998 39.72 246.264 39.24C246.544 38.76 246.684 38.0067 246.684 36.98C246.684 35.9533 246.544 35.2067 246.264 34.74C245.998 34.2733 245.511 34.04 244.804 34.04C244.098 34.04 243.604 34.2733 243.324 34.74C243.058 35.2067 242.924 35.9533 242.924 36.98C242.924 38.0067 243.058 38.76 243.324 39.24ZM260.429 43.24C260.429 44.3867 259.989 45.2333 259.109 45.78C258.229 46.3267 257.036 46.6 255.529 46.6C254.036 46.6 252.882 46.4 252.069 46C251.269 45.6 250.869 44.8733 250.869 43.82C250.869 42.98 251.349 42.1867 252.309 41.44C251.816 41.1067 251.569 40.6 251.569 39.92C251.569 39.6533 251.769 39.2133 252.169 38.6L252.349 38.32C251.442 37.6667 250.989 36.7067 250.989 35.44C250.989 34.16 251.369 33.2333 252.129 32.66C252.902 32.0867 253.922 31.8 255.189 31.8C255.762 31.8 256.329 31.8667 256.889 32L257.209 32.06L260.429 31.96V34.1L258.929 33.98C259.222 34.4333 259.369 34.8867 259.369 35.34C259.369 36.6733 259.029 37.5933 258.349 38.1C257.669 38.6067 256.602 38.86 255.149 38.86C254.842 38.86 254.569 38.8333 254.329 38.78C254.196 39.1267 254.129 39.4133 254.129 39.64C254.129 39.8533 254.242 40 254.469 40.08C254.696 40.16 255.229 40.2067 256.069 40.22C257.749 40.2333 258.896 40.46 259.509 40.9C260.122 41.3267 260.429 42.1067 260.429 43.24ZM253.509 43.54C253.509 44.1133 254.209 44.4 255.609 44.4C257.022 44.4 257.729 44.0667 257.729 43.4C257.729 43.04 257.609 42.8067 257.369 42.7C257.129 42.6067 256.622 42.5533 255.849 42.54L254.049 42.4C253.689 42.76 253.509 43.14 253.509 43.54ZM253.669 35.36C253.669 36.3333 254.176 36.82 255.189 36.82C256.216 36.82 256.729 36.3333 256.729 35.36C256.729 34.3733 256.216 33.88 255.189 33.88C254.176 33.88 253.669 34.3733 253.669 35.36ZM262.173 42V28H264.853V42H262.173ZM269.643 38.14C269.656 38.7533 269.816 39.2 270.123 39.48C270.443 39.7467 270.896 39.88 271.483 39.88C272.723 39.88 273.83 39.84 274.803 39.76L275.363 39.7L275.403 41.68C273.87 42.0533 272.483 42.24 271.243 42.24C269.736 42.24 268.643 41.84 267.963 41.04C267.283 40.24 266.943 38.94 266.943 37.14C266.943 33.5533 268.416 31.76 271.363 31.76C274.27 31.76 275.723 33.2667 275.723 36.28L275.523 38.14H269.643ZM273.083 36.1C273.083 35.3 272.956 34.7467 272.703 34.44C272.45 34.12 272.003 33.96 271.363 33.96C270.736 33.96 270.29 34.1267 270.023 34.46C269.77 34.78 269.636 35.3267 269.623 36.1H273.083Z" fill="#261840"/>
</svg>
