<svg width="140" height="74" viewBox="0 0 140 74" fill="none" xmlns="http://www.w3.org/2000/svg">
<rect width="140" height="74" rx="8" fill="#9957E5"/>
<g clip-path="url(#clip0_6033_40059)">
<path d="M41.95 32.95L40.536 34.364L38 31.828V45H36V31.828L33.465 34.364L32.05 32.95L37 28L41.95 32.95ZM51.95 41.05L47 46L42.05 41.05L43.464 39.636L46.001 42.172L46 29H48V42.172L50.536 39.636L51.95 41.05V41.05Z" fill="#F5EFFD"/>
</g>
<path d="M68.0174 32.56C66.5641 32.56 65.8374 33.04 65.8374 34C65.8374 34.4267 66.0174 34.7533 66.3774 34.98C66.7374 35.2067 67.5774 35.5333 68.8974 35.96C70.2308 36.3867 71.1641 36.8733 71.6974 37.42C72.2308 37.9533 72.4974 38.78 72.4974 39.9C72.4974 41.3267 72.0641 42.4067 71.1974 43.14C70.3308 43.8733 69.1974 44.24 67.7974 44.24C66.7574 44.24 65.4841 44.08 63.9774 43.76L63.2574 43.62L63.5374 41.48C65.3241 41.72 66.6908 41.84 67.6374 41.84C69.0508 41.84 69.7574 41.2533 69.7574 40.08C69.7574 39.6533 69.5908 39.32 69.2574 39.08C68.9374 38.84 68.2908 38.58 67.3174 38.3C65.7708 37.86 64.6774 37.34 64.0374 36.74C63.4108 36.1267 63.0974 35.28 63.0974 34.2C63.0974 32.84 63.5108 31.8267 64.3374 31.16C65.1641 30.4933 66.2974 30.16 67.7374 30.16C68.7241 30.16 69.9774 30.2933 71.4974 30.56L72.2174 30.7L71.9974 32.88C70.1174 32.6667 68.7908 32.56 68.0174 32.56ZM73.5796 34H76.2196L77.4396 41.72H77.9196L79.4396 34.2H82.1996L83.7196 41.72H84.1996L85.4196 34H88.0596L86.1596 44H81.9596L80.8196 37.88L79.6796 44H75.4796L73.5796 34ZM97.4488 37.12V41.28C97.4755 41.6 97.5288 41.8267 97.6088 41.96C97.6888 42.08 97.8555 42.1667 98.1088 42.22L98.0288 44.24C97.3488 44.24 96.8022 44.1933 96.3888 44.1C95.9888 44.0067 95.5822 43.82 95.1688 43.54C94.2088 44.0067 93.2288 44.24 92.2288 44.24C90.1622 44.24 89.1288 43.1467 89.1288 40.96C89.1288 39.8933 89.4155 39.14 89.9888 38.7C90.5622 38.2467 91.4422 37.98 92.6288 37.9L94.7688 37.74V37.12C94.7688 36.7067 94.6755 36.4267 94.4888 36.28C94.3022 36.12 94.0022 36.04 93.5888 36.04L89.8288 36.2L89.7488 34.34C91.1755 33.9533 92.5288 33.76 93.8088 33.76C95.1022 33.76 96.0288 34.0267 96.5888 34.56C97.1622 35.0933 97.4488 35.9467 97.4488 37.12ZM92.9488 39.76C92.2022 39.8267 91.8288 40.2267 91.8288 40.96C91.8288 41.6933 92.1555 42.06 92.8088 42.06C93.3155 42.06 93.8688 41.98 94.4688 41.82L94.7688 41.74V39.6L92.9488 39.76ZM100.004 48.2V34H102.664V34.54C103.53 34.02 104.29 33.76 104.944 33.76C106.29 33.76 107.284 34.1667 107.924 34.98C108.564 35.78 108.884 37.1467 108.884 39.08C108.884 41.0133 108.53 42.36 107.824 43.12C107.117 43.8667 105.957 44.24 104.344 44.24C103.904 44.24 103.43 44.2 102.924 44.12L102.684 44.08V48.2H100.004ZM104.424 36.16C103.93 36.16 103.43 36.26 102.924 36.46L102.684 36.56V41.8C103.284 41.88 103.77 41.92 104.144 41.92C104.917 41.92 105.444 41.6933 105.724 41.24C106.017 40.7867 106.164 40.0133 106.164 38.92C106.164 37.08 105.584 36.16 104.424 36.16Z" fill="#F5EFFD"/>
<defs>
<clipPath id="clip0_6033_40059">
<rect width="24" height="24" fill="white" transform="translate(30 25)"/>
</clipPath>
</defs>
</svg>
