<svg width="684" height="74" viewBox="0 0 684 74" fill="none" xmlns="http://www.w3.org/2000/svg">
<rect width="140" height="74" rx="8" fill="#9957E5"/>
<g clip-path="url(#clip0_6033_40055)">
<path d="M33.5 41.172L38.864 35.808L40.278 37.222L32.5 45L24.722 37.222L26.136 35.808L31.5 41.172V29H33.5V41.172Z" fill="white"/>
</g>
<path d="M58.8862 44H54.3062V30.4H58.8862C60.0595 30.4 61.0262 30.5267 61.7862 30.78C62.5462 31.02 63.1328 31.4267 63.5462 32C63.9728 32.56 64.2662 33.2267 64.4262 34C64.5862 34.76 64.6662 35.7533 64.6662 36.98C64.6662 38.2067 64.5928 39.2267 64.4462 40.04C64.2995 40.84 64.0195 41.56 63.6062 42.2C63.2062 42.8267 62.6195 43.2867 61.8462 43.58C61.0728 43.86 60.0862 44 58.8862 44ZM61.7862 38.6C61.8128 38.1733 61.8262 37.5867 61.8262 36.84C61.8262 36.08 61.7995 35.4733 61.7462 35.02C61.6928 34.5667 61.5662 34.1533 61.3662 33.78C61.1662 33.4067 60.8662 33.1533 60.4662 33.02C60.0795 32.8733 59.5528 32.8 58.8862 32.8H57.0662V41.6H58.8862C59.8862 41.6 60.6128 41.3467 61.0662 40.84C61.4528 40.4267 61.6928 39.68 61.7862 38.6ZM69.0201 40.14C69.0334 40.7533 69.1934 41.2 69.5001 41.48C69.8201 41.7467 70.2734 41.88 70.8601 41.88C72.1001 41.88 73.2067 41.84 74.1801 41.76L74.7401 41.7L74.7801 43.68C73.2467 44.0533 71.8601 44.24 70.6201 44.24C69.1134 44.24 68.0201 43.84 67.3401 43.04C66.6601 42.24 66.3201 40.94 66.3201 39.14C66.3201 35.5533 67.7934 33.76 70.7401 33.76C73.6467 33.76 75.1001 35.2667 75.1001 38.28L74.9001 40.14H69.0201ZM72.4601 38.1C72.4601 37.3 72.3334 36.7467 72.0801 36.44C71.8267 36.12 71.3801 35.96 70.7401 35.96C70.1134 35.96 69.6667 36.1267 69.4001 36.46C69.1467 36.78 69.0134 37.3267 69.0001 38.1H72.4601ZM77.0154 48.2V34H79.6754V34.54C80.5421 34.02 81.3021 33.76 81.9554 33.76C83.3021 33.76 84.2954 34.1667 84.9354 34.98C85.5754 35.78 85.8954 37.1467 85.8954 39.08C85.8954 41.0133 85.5421 42.36 84.8354 43.12C84.1287 43.8667 82.9687 44.24 81.3554 44.24C80.9154 44.24 80.4421 44.2 79.9354 44.12L79.6954 44.08V48.2H77.0154ZM81.4354 36.16C80.9421 36.16 80.4421 36.26 79.9354 36.46L79.6954 36.56V41.8C80.2954 41.88 80.7821 41.92 81.1554 41.92C81.9287 41.92 82.4554 41.6933 82.7354 41.24C83.0287 40.7867 83.1754 40.0133 83.1754 38.92C83.1754 37.08 82.5954 36.16 81.4354 36.16ZM88.4343 35.14C89.141 34.22 90.321 33.76 91.9743 33.76C93.6276 33.76 94.8076 34.22 95.5143 35.14C96.221 36.0467 96.5743 37.3267 96.5743 38.98C96.5743 42.4867 95.041 44.24 91.9743 44.24C88.9076 44.24 87.3743 42.4867 87.3743 38.98C87.3743 37.3267 87.7276 36.0467 88.4343 35.14ZM90.4943 41.24C90.7743 41.72 91.2676 41.96 91.9743 41.96C92.681 41.96 93.1676 41.72 93.4343 41.24C93.7143 40.76 93.8543 40.0067 93.8543 38.98C93.8543 37.9533 93.7143 37.2067 93.4343 36.74C93.1676 36.2733 92.681 36.04 91.9743 36.04C91.2676 36.04 90.7743 36.2733 90.4943 36.74C90.2276 37.2067 90.0943 37.9533 90.0943 38.98C90.0943 40.0067 90.2276 40.76 90.4943 41.24ZM105.719 36.5C104.065 36.2867 102.905 36.18 102.239 36.18C101.585 36.18 101.159 36.24 100.959 36.36C100.772 36.48 100.679 36.6733 100.679 36.94C100.679 37.1933 100.805 37.3733 101.059 37.48C101.325 37.5733 101.992 37.72 103.059 37.92C104.139 38.1067 104.905 38.42 105.359 38.86C105.812 39.3 106.039 40.0133 106.039 41C106.039 43.16 104.699 44.24 102.019 44.24C101.139 44.24 100.072 44.12 98.8188 43.88L98.1788 43.76L98.2588 41.52C99.9122 41.7333 101.059 41.84 101.699 41.84C102.352 41.84 102.792 41.78 103.019 41.66C103.259 41.5267 103.379 41.3333 103.379 41.08C103.379 40.8267 103.252 40.64 102.999 40.52C102.759 40.4 102.119 40.2533 101.079 40.08C100.052 39.9067 99.2855 39.6133 98.7788 39.2C98.2722 38.7867 98.0188 38.0533 98.0188 37C98.0188 35.9333 98.3788 35.1333 99.0988 34.6C99.8188 34.0533 100.745 33.78 101.879 33.78C102.665 33.78 103.739 33.9067 105.099 34.16L105.759 34.28L105.719 36.5ZM107.972 44V34H110.652V44H107.972ZM107.972 32.72V30H110.652V32.72H107.972ZM118.669 36.28H116.209V40.38C116.209 40.78 116.215 41.0667 116.229 41.24C116.255 41.4 116.329 41.54 116.449 41.66C116.582 41.78 116.782 41.84 117.049 41.84L118.569 41.8L118.689 43.94C117.795 44.14 117.115 44.24 116.649 44.24C115.449 44.24 114.629 43.9733 114.189 43.44C113.749 42.8933 113.529 41.8933 113.529 40.44V36.28H112.349V34H113.529V31.22H116.209V34H118.669V36.28Z" fill="white"/>
<rect x="152" width="140" height="74" rx="8" fill="#9957E5"/>
<g clip-path="url(#clip1_6033_40055)">
<path d="M193.95 32.95L192.536 34.364L190 31.828V45H188V31.828L185.465 34.364L184.05 32.95L189 28L193.95 32.95ZM203.95 41.05L199 46L194.05 41.05L195.464 39.636L198.001 42.172L198 29H200V42.172L202.536 39.636L203.95 41.05Z" fill="#F5EFFD"/>
</g>
<path d="M220.017 32.56C218.564 32.56 217.837 33.04 217.837 34C217.837 34.4267 218.017 34.7533 218.377 34.98C218.737 35.2067 219.577 35.5333 220.897 35.96C222.231 36.3867 223.164 36.8733 223.697 37.42C224.231 37.9533 224.497 38.78 224.497 39.9C224.497 41.3267 224.064 42.4067 223.197 43.14C222.331 43.8733 221.197 44.24 219.797 44.24C218.757 44.24 217.484 44.08 215.977 43.76L215.257 43.62L215.537 41.48C217.324 41.72 218.691 41.84 219.637 41.84C221.051 41.84 221.757 41.2533 221.757 40.08C221.757 39.6533 221.591 39.32 221.257 39.08C220.937 38.84 220.291 38.58 219.317 38.3C217.771 37.86 216.677 37.34 216.037 36.74C215.411 36.1267 215.097 35.28 215.097 34.2C215.097 32.84 215.511 31.8267 216.337 31.16C217.164 30.4933 218.297 30.16 219.737 30.16C220.724 30.16 221.977 30.2933 223.497 30.56L224.217 30.7L223.997 32.88C222.117 32.6667 220.791 32.56 220.017 32.56ZM225.58 34H228.22L229.44 41.72H229.92L231.44 34.2H234.2L235.72 41.72H236.2L237.42 34H240.06L238.16 44H233.96L232.82 37.88L231.68 44H227.48L225.58 34ZM249.449 37.12V41.28C249.475 41.6 249.529 41.8267 249.609 41.96C249.689 42.08 249.855 42.1667 250.109 42.22L250.029 44.24C249.349 44.24 248.802 44.1933 248.389 44.1C247.989 44.0067 247.582 43.82 247.169 43.54C246.209 44.0067 245.229 44.24 244.229 44.24C242.162 44.24 241.129 43.1467 241.129 40.96C241.129 39.8933 241.415 39.14 241.989 38.7C242.562 38.2467 243.442 37.98 244.629 37.9L246.769 37.74V37.12C246.769 36.7067 246.675 36.4267 246.489 36.28C246.302 36.12 246.002 36.04 245.589 36.04L241.829 36.2L241.749 34.34C243.175 33.9533 244.529 33.76 245.809 33.76C247.102 33.76 248.029 34.0267 248.589 34.56C249.162 35.0933 249.449 35.9467 249.449 37.12ZM244.949 39.76C244.202 39.8267 243.829 40.2267 243.829 40.96C243.829 41.6933 244.155 42.06 244.809 42.06C245.315 42.06 245.869 41.98 246.469 41.82L246.769 41.74V39.6L244.949 39.76ZM252.004 48.2V34H254.664V34.54C255.53 34.02 256.29 33.76 256.944 33.76C258.29 33.76 259.284 34.1667 259.924 34.98C260.564 35.78 260.884 37.1467 260.884 39.08C260.884 41.0133 260.53 42.36 259.824 43.12C259.117 43.8667 257.957 44.24 256.344 44.24C255.904 44.24 255.43 44.2 254.924 44.12L254.684 44.08V48.2H252.004ZM256.424 36.16C255.93 36.16 255.43 36.26 254.924 36.46L254.684 36.56V41.8C255.284 41.88 255.77 41.92 256.144 41.92C256.917 41.92 257.444 41.6933 257.724 41.24C258.017 40.7867 258.164 40.0133 258.164 38.92C258.164 37.08 257.584 36.16 256.424 36.16Z" fill="#F5EFFD"/>
<rect x="304" width="140" height="74" rx="8" fill="#9957E5"/>
<g clip-path="url(#clip2_6033_40055)">
<path d="M352.004 34.414L343.397 43.021L341.983 41.607L350.589 33H343.004V31H354.004V42H352.004V34.414Z" fill="#F5EFFD"/>
</g>
<path d="M374.107 32.56C372.654 32.56 371.927 33.04 371.927 34C371.927 34.4267 372.107 34.7533 372.467 34.98C372.827 35.2067 373.667 35.5333 374.987 35.96C376.321 36.3867 377.254 36.8733 377.787 37.42C378.321 37.9533 378.587 38.78 378.587 39.9C378.587 41.3267 378.154 42.4067 377.287 43.14C376.421 43.8733 375.287 44.24 373.887 44.24C372.847 44.24 371.574 44.08 370.067 43.76L369.347 43.62L369.627 41.48C371.414 41.72 372.781 41.84 373.727 41.84C375.141 41.84 375.847 41.2533 375.847 40.08C375.847 39.6533 375.681 39.32 375.347 39.08C375.027 38.84 374.381 38.58 373.407 38.3C371.861 37.86 370.767 37.34 370.127 36.74C369.501 36.1267 369.187 35.28 369.187 34.2C369.187 32.84 369.601 31.8267 370.427 31.16C371.254 30.4933 372.387 30.16 373.827 30.16C374.814 30.16 376.067 30.2933 377.587 30.56L378.307 30.7L378.087 32.88C376.207 32.6667 374.881 32.56 374.107 32.56ZM382.766 40.14C382.78 40.7533 382.94 41.2 383.246 41.48C383.566 41.7467 384.02 41.88 384.606 41.88C385.846 41.88 386.953 41.84 387.926 41.76L388.486 41.7L388.526 43.68C386.993 44.0533 385.606 44.24 384.366 44.24C382.86 44.24 381.766 43.84 381.086 43.04C380.406 42.24 380.066 40.94 380.066 39.14C380.066 35.5533 381.54 33.76 384.486 33.76C387.393 33.76 388.846 35.2667 388.846 38.28L388.646 40.14H382.766ZM386.206 38.1C386.206 37.3 386.08 36.7467 385.826 36.44C385.573 36.12 385.126 35.96 384.486 35.96C383.86 35.96 383.413 36.1267 383.146 36.46C382.893 36.78 382.76 37.3267 382.746 38.1H386.206ZM393.441 44H390.761V34H393.421V34.56C394.328 34.0267 395.161 33.76 395.921 33.76C397.255 33.76 398.175 34.1533 398.681 34.94C399.188 35.7267 399.441 36.94 399.441 38.58V44H396.761V38.66C396.761 37.8067 396.661 37.18 396.461 36.78C396.261 36.3667 395.861 36.16 395.261 36.16C394.715 36.16 394.188 36.2533 393.681 36.44L393.441 36.52V44ZM410.316 30V44H407.656V43.58C406.723 44.02 405.916 44.24 405.236 44.24C403.783 44.24 402.77 43.82 402.196 42.98C401.623 42.14 401.336 40.8133 401.336 39C401.336 37.1733 401.676 35.8467 402.356 35.02C403.05 34.18 404.09 33.76 405.476 33.76C405.903 33.76 406.496 33.8267 407.256 33.96L407.636 34.04V30H410.316ZM407.356 41.6L407.636 41.54V36.28C406.903 36.1467 406.25 36.08 405.676 36.08C404.596 36.08 404.056 37.04 404.056 38.96C404.056 40 404.176 40.74 404.416 41.18C404.656 41.62 405.05 41.84 405.596 41.84C406.156 41.84 406.743 41.76 407.356 41.6Z" fill="#F5EFFD"/>
<defs>
<clipPath id="clip0_6033_40055">
<rect width="24" height="24" fill="white" transform="translate(20.5 25)"/>
</clipPath>
<clipPath id="clip1_6033_40055">
<rect width="24" height="24" fill="white" transform="translate(182 25)"/>
</clipPath>
<clipPath id="clip2_6033_40055">
<rect width="24" height="24" fill="white" transform="translate(336 25)"/>
</clipPath>
</defs>
</svg>
